<svg xmlns="http://www.w3.org/2000/svg" width="128" height="64" viewBox="0 0 128 64">
  <rect width="128" height="64" fill="#0f1c24" />

  <rect x="1" y="1" width="30" height="30" fill="#8ad5ff" stroke="#dff6ff" />
  <circle cx="16" cy="12" r="4" fill="#143446" />
  <rect x="10" y="18" width="12" height="10" fill="#2a6b8f" />

  <rect x="33" y="1" width="30" height="30" fill="#ff7a66" stroke="#ffd8d2" />
  <circle cx="48" cy="12" r="4" fill="#61251c" />
  <rect x="42" y="18" width="12" height="10" fill="#8d392d" />

  <rect x="65" y="1" width="30" height="30" fill="#7d8895" stroke="#d9e3ec" />
  <rect x="69" y="5" width="22" height="22" fill="#5f6b78" />

  <rect x="97" y="1" width="30" height="30" fill="#6ddfa3" stroke="#d8ffe9" />
  <path d="M103 25 L112 7 L121 25 Z" fill="#2f7f54" />

  <rect x="1" y="33" width="30" height="30" fill="#ffcb6b" stroke="#fff2d1" />
  <polygon points="6,58 16,40 26,58" fill="#c17a10" />

  <rect x="33" y="33" width="30" height="30" fill="#76b7ff" stroke="#dbeeff" />
  <circle cx="48" cy="48" r="9" fill="#2c6eb8" />

  <rect x="65" y="33" width="30" height="30" fill="#f6a75a" stroke="#ffe6cf" />
  <rect x="69" y="49" width="22" height="10" fill="#c5782d" />

  <rect x="97" y="33" width="30" height="30" fill="#b8793d" stroke="#fbe4ca" />
  <rect x="103" y="37" width="18" height="22" fill="#8e5a2b" />
</svg>
